<?xml version="1.0" encoding="UTF-8"?>
<svg width="1080" height="1440" viewBox="0 0 1080 1440" xmlns="http://www.w3.org/2000/svg" xmlns:xlink="http://www.w3.org/1999/xlink">
  <defs>
    <linearGradient id="g" x1="0" y1="0" x2="1" y2="1">
      <stop offset="0%" stop-color="#FFEDD5"/>
      <stop offset="50%" stop-color="#FED7AA"/>
      <stop offset="100%" stop-color="#FDBA74"/>
    </linearGradient>
    <filter id="blur" x="-20%" y="-20%" width="140%" height="140%">
      <feGaussianBlur stdDeviation="80"/>
    </filter>
  </defs>
  <rect x="0" y="0" width="1080" height="1440" fill="url(#g)"/>
  <circle cx="200" cy="300" r="180" fill="#ffffff" opacity="0.2" filter="url(#blur)"/>
  <circle cx="900" cy="220" r="160" fill="#ffffff" opacity="0.15" filter="url(#blur)"/>
  <circle cx="840" cy="1100" r="220" fill="#ffffff" opacity="0.18" filter="url(#blur)"/>
  
  <!-- Brand bar -->
  <g transform="translate(80,80)">
    <rect x="0" y="0" width="920" height="72" rx="20" fill="#FFFFFF" opacity="0.6"/>
    <image xlink:href="../images/icons/icon_64x64.png" x="16" y="8" width="56" height="56"/>
    <text x="88" y="52" font-family="Inter, system-ui, -apple-system, Segoe UI, Roboto, Helvetica, Arial" font-weight="800" font-size="40" fill="#111827">虎啦 HolaTiger</text>
  </g>

  <!-- Title -->
  <g>
    <rect x="80" y="180" rx="28" ry="28" width="420" height="70" fill="#F97316" opacity="0.15"/>
    <text x="100" y="228" font-family="Inter, system-ui, -apple-system, Segoe UI, Roboto, Helvetica, Arial" font-weight="700" font-size="48" fill="#EA580C">HolaTiger 新应用</text>
  </g>

  <text x="80" y="360" font-family="Inter, system-ui, -apple-system, Segoe UI, Roboto, Helvetica, Arial" font-weight="800" font-size="100" fill="#111827">小工具，大能量</text>
  <text x="80" y="420" font-family="Inter, system-ui, -apple-system, Segoe UI, Roboto, Helvetica, Arial" font-weight="600" font-size="44" fill="#374151">轻量 · 开箱即用 · 持续上新</text>

  <!-- App cards -->
  <g transform="translate(80,540)">
    <rect width="880" height="240" rx="28" fill="#ffffff" opacity="0.85"/>
    <g transform="translate(24,24)">
      <rect width="80" height="80" rx="18" fill="#DBEAFE"/>
      <image xlink:href="../images/tinypass/svg-export-40x40.png" x="20" y="20" width="40" height="40"/>
      <text x="110" y="58" font-family="Inter, system-ui" font-size="44" font-weight="700" fill="#111827">TinyPass</text>
      <text x="110" y="106" font-family="Inter, system-ui" font-size="28" fill="#374151">离线强密码生成 · 已上架</text>
    </g>
  </g>
  <g transform="translate(80,820)">
    <rect width="880" height="240" rx="28" fill="#ffffff" opacity="0.85"/>
    <g transform="translate(24,24)">
      <rect width="80" height="80" rx="18" fill="#E0E7FF"/>
      <image xlink:href="../images/webdavy/svg-export-40x40.png" x="20" y="20" width="40" height="40"/>
      <text x="110" y="58" font-family="Inter, system-ui" font-size="44" font-weight="700" fill="#111827">WebDavy</text>
      <text x="110" y="106" font-family="Inter, system-ui" font-size="28" fill="#374151">浏览器直连 WebDAV · 新发布</text>
    </g>
  </g>
  <g transform="translate(80,1100)">
    <rect width="880" height="240" rx="28" fill="#ffffff" opacity="0.85"/>
    <g transform="translate(24,24)">
      <rect width="80" height="80" rx="18" fill="#F3E8FF"/>
      <image xlink:href="../images/icons/icon_64x64.png" x="20" y="20" width="40" height="40"/>
      <text x="110" y="58" font-family="Inter, system-ui" font-size="44" font-weight="700" fill="#111827">SVG Studio</text>
      <text x="110" y="106" font-family="Inter, system-ui" font-size="28" fill="#374151">SVG 多尺寸导出 · 在线可用</text>
    </g>
  </g>

  <!-- Footer note -->
  <text x="80" y="1400" font-family="Inter, system-ui" font-size="26" fill="#6B7280">HolaTiger · 个人开发者出品</text>
</svg> 