<?xml version="1.0" encoding="UTF-8"?>
<svg width="1080" height="1440" viewBox="0 0 1080 1440" xmlns="http://www.w3.org/2000/svg" xmlns:xlink="http://www.w3.org/1999/xlink">
  <defs>
    <linearGradient id="bg" x1="0" y1="0" x2="1" y2="1">
      <stop offset="0%" stop-color="#EEF2FF"/>
      <stop offset="100%" stop-color="#E9D5FF"/>
    </linearGradient>
    <filter id="glow">
      <feGaussianBlur stdDeviation="60"/>
    </filter>
    <pattern id="grid" width="64" height="64" patternUnits="userSpaceOnUse">
      <rect width="64" height="64" fill="none" stroke="#C7D2FE" opacity="0.35"/>
    </pattern>
  </defs>
  <rect width="1080" height="1440" fill="url(#bg)"/>

  <!-- Brand bar -->
  <g transform="translate(80,80)">
    <rect x="0" y="0" width="920" height="72" rx="20" fill="#FFFFFF" opacity="0.6"/>
    <image xlink:href="../images/icons/icon_64x64.png" x="16" y="8" width="56" height="56"/>
    <text x="88" y="52" font-family="Inter, system-ui" font-weight="800" font-size="40" fill="#111827">虎啦 HolaTiger</text>
  </g>

  <rect x="80" y="520" width="920" height="640" fill="url(#grid)" rx="24"/>

  <!-- Badge -->
  <rect x="80" y="180" rx="22" ry="22" width="280" height="64" fill="#7C3AED" opacity="0.12"/>
  <text x="100" y="224" font-family="Inter, system-ui" font-weight="700" font-size="40" fill="#6D28D9">SVG Studio Pro</text>

  <!-- Title -->
  <text x="80" y="360" font-family="Inter, system-ui" font-weight="800" font-size="96" fill="#111827">SVG 一键多尺寸导出</text>
  <text x="80" y="420" font-family="Inter, system-ui" font-weight="600" font-size="40" fill="#374151">实时预览 · 批量 PNG/ICO · Chrome 图标包</text>

  <!-- Size presets with app icon -->
  <g transform="translate(120,580)">
    <rect width="140" height="140" rx="18" fill="#ffffff" opacity="0.95"/>
    <image xlink:href="../images/icons/icon_64x64.png" x="50" y="20" width="40" height="40"/>
    <text x="42" y="120" font-family="Inter, system-ui" font-size="48" font-weight="700" fill="#111827">16</text>
  </g>
  <g transform="translate(300,580)">
    <rect width="140" height="140" rx="18" fill="#ffffff" opacity="0.95"/>
    <image xlink:href="../images/icons/icon_64x64.png" x="50" y="20" width="40" height="40"/>
    <text x="42" y="120" font-family="Inter, system-ui" font-size="48" font-weight="700" fill="#111827">32</text>
  </g>
  <g transform="translate(480,580)">
    <rect width="140" height="140" rx="18" fill="#ffffff" opacity="0.95"/>
    <image xlink:href="../images/icons/icon_64x64.png" x="50" y="20" width="40" height="40"/>
    <text x="42" y="120" font-family="Inter, system-ui" font-size="48" font-weight="700" fill="#111827">64</text>
  </g>
  <g transform="translate(660,580)">
    <rect width="140" height="140" rx="18" fill="#ffffff" opacity="0.95"/>
    <image xlink:href="../images/icons/icon_64x64.png" x="50" y="20" width="40" height="40"/>
    <text x="32" y="120" font-family="Inter, system-ui" font-size="48" font-weight="700" fill="#111827">128</text>
  </g>
  <g transform="translate(840,580)">
    <rect width="140" height="140" rx="18" fill="#ffffff" opacity="0.95"/>
    <image xlink:href="../images/icons/icon_64x64.png" x="50" y="20" width="40" height="40"/>
    <text x="28" y="120" font-family="Inter, system-ui" font-size="48" font-weight="700" fill="#111827">512</text>
  </g>

  <!-- Buttons -->
  <g transform="translate(120,820)">
    <rect width="360" height="120" rx="22" fill="#7C3AED"/>
    <text x="60" y="78" font-family="Inter, system-ui" font-size="48" font-weight="800" fill="#ffffff">批量导出 PNG</text>
  </g>
  <g transform="translate(520,820)">
    <rect width="360" height="120" rx="22" fill="#9333EA"/>
    <text x="68" y="78" font-family="Inter, system-ui" font-size="48" font-weight="800" fill="#ffffff">生成图标包</text>
  </g>

  <text x="80" y="1400" font-family="Inter, system-ui" font-size="26" fill="#6B7280">搜索“小红书：SVG Studio 图标导出”了解更多</text>
</svg> 