<?xml version="1.0" encoding="UTF-8"?>
<svg width="1080" height="1080" viewBox="0 0 1080 1080" xmlns="http://www.w3.org/2000/svg" xmlns:xlink="http://www.w3.org/1999/xlink">
  <defs>
    <linearGradient id="bg" x1="0" y1="0" x2="1" y2="1">
      <stop offset="0%" stop-color="#EDE9FE"/>
      <stop offset="100%" stop-color="#E9D5FF"/>
    </linearGradient>
  </defs>
  <rect width="1080" height="1080" fill="url(#bg)"/>

  <!-- Row 1: Cover + size card + button card -->
  <image xlink:href="../png/svg-studio-cover.png" x="30" y="30" width="340" height="340"/>
  <rect x="370" y="30" width="340" height="340" rx="24" fill="#ffffff" opacity="0.9"/>
  <g transform="translate(400,70)">
    <text x="0" y="46" font-family="Inter, system-ui" font-size="36" font-weight="800" fill="#111827">尺寸预设</text>
    <text x="0" y="90" font-family="Inter, system-ui" font-size="28" fill="#374151">16 · 32 · 64 · 128 · 512</text>
    <text x="0" y="130" font-family="Inter, system-ui" font-size="28" fill="#374151">实时预览 · 所见即所得</text>
  </g>
  <rect x="710" y="30" width="340" height="340" rx="24" fill="#7C3AED"/>
  <g transform="translate(740,110)">
    <text x="0" y="0" font-family="Inter, system-ui" font-size="40" font-weight="800" fill="#ffffff">批量导出 PNG</text>
    <text x="0" y="54" font-family="Inter, system-ui" font-size="28" fill="#E9D5FF">生成图标包 · ICO</text>
  </g>

  <!-- Row 2: grid preview + brand + icon -->
  <rect x="30" y="370" width="340" height="340" rx="24" fill="#ffffff" opacity="0.9"/>
  <g transform="translate(60,400)">
    <text x="0" y="42" font-family="Inter, system-ui" font-size="34" font-weight="700" fill="#111827">预览</text>
    <text x="0" y="90" font-family="Inter, system-ui" font-size="24" fill="#374151">拖拽/粘贴 即可使用</text>
  </g>
  <rect x="370" y="370" width="340" height="340" rx="24" fill="#ffffff" opacity="0.85"/>
  <g transform="translate(400,400)">
    <image xlink:href="../../images/icons/icon_64x64.png" x="0" y="0" width="64" height="64"/>
    <text x="90" y="46" font-family="Inter, system-ui" font-size="34" font-weight="700" fill="#111827">HolaTiger</text>
    <text x="0" y="110" font-family="Inter, system-ui" font-size="24" fill="#374151">#SVG工具 #图标导出 #设计效率</text>
  </g>
  <rect x="710" y="370" width="340" height="340" rx="24" fill="#ffffff" opacity="0.9"/>
  <g transform="translate(740,400)">
    <text x="0" y="42" font-family="Inter, system-ui" font-size="34" font-weight="700" fill="#111827">Chrome 图标包</text>
    <text x="0" y="90" font-family="Inter, system-ui" font-size="24" fill="#374151">一次生成 多尺寸就绪</text>
  </g>

  <!-- Row 3: CTA + blank + logo -->
  <rect x="30" y="710" width="340" height="340" rx="24" fill="#7C3AED"/>
  <text x="60" y="840" font-family="Inter, system-ui" font-size="42" font-weight="800" fill="#ffffff">小红书搜</text>
  <text x="60" y="890" font-family="Inter, system-ui" font-size="38" font-weight="800" fill="#ffffff">“SVG Studio 图标导出”</text>
  <rect x="370" y="710" width="340" height="340" rx="24" fill="#ffffff" opacity="0.75"/>
  <text x="400" y="880" font-family="Inter, system-ui" font-size="30" fill="#374151">评论回“尺寸表” 获取批量预设清单</text>
  <rect x="710" y="710" width="340" height="340" rx="24" fill="#ffffff" opacity="0.85"/>
  <g transform="translate(740,740)">
    <image xlink:href="../../images/icons/icon_256x256.png" x="0" y="0" width="128" height="128"/>
    <text x="0" y="170" font-family="Inter, system-ui" font-size="28" fill="#374151">虎啦 HolaTiger · 个人开发者</text>
  </g>
</svg> 